<svg xmlns="http://www.w3.org/2000/svg" width="1110" height="1125" viewBox="0 0 1110 1125" version="1.1"><path d="M 824 274.096 C 719.899 343.344, 691.102 361.956, 664 377.501 C 648.875 386.177, 636.399 393.352, 636.275 393.446 C 636.152 393.539, 642.677 397.384, 650.775 401.989 C 680.486 418.883, 694.362 427.524, 789.140 488.156 C 842.291 522.158, 886.391 550.199, 887.140 550.468 C 888.050 550.797, 894.622 541.344, 907 521.906 C 917.175 505.927, 925.500 492.230, 925.500 491.468 C 925.500 490.706, 891.975 468.643, 851 442.437 C 810.025 416.232, 776.095 394.411, 775.601 393.947 C 775.093 393.470, 805.370 372.776, 845.101 346.445 C 883.820 320.784, 915.816 299.498, 916.202 299.143 C 916.904 298.496, 878.527 239.645, 877.203 239.336 C 876.816 239.246, 852.875 254.888, 824 274.096 M 351 272.471 C 331.463 275.770, 312.110 283.826, 297.448 294.764 C 270.494 314.871, 253.578 343.265, 248.455 377 C 240.635 428.486, 267.191 480.270, 313.743 504.313 C 387.671 542.495, 477.023 496.069, 489.502 412.990 C 496.637 365.481, 475.638 317.851, 435.913 291.442 C 411.221 275.027, 378.784 267.780, 351 272.471 M 266.422 722.483 C 268.182 746.458, 277.516 770.766, 293.982 794.254 C 302.097 805.829, 324.272 828.173, 337.287 837.889 C 386.232 874.429, 449.449 897.257, 525 905.676 C 546.721 908.096, 599.279 908.096, 621 905.676 C 665.766 900.688, 708.096 890.172, 742.500 875.492 C 824.929 840.320, 874.811 784.346, 879.633 721.612 L 880.295 713 831.148 713 L 782 713 782 717.455 C 782 727.851, 774.329 742.440, 762.731 754.104 C 742.454 774.495, 706.920 791.124, 662.552 800.986 C 634.108 807.308, 607.362 810, 573 810 C 529.436 810, 493.729 805.157, 458.448 794.463 C 442.551 789.645, 432.957 785.813, 418.318 778.436 C 397.485 767.937, 379.822 753.479, 372.123 740.622 C 367.551 732.988, 364 722.860, 364 717.455 L 364 713 314.863 713 L 265.726 713 266.422 722.483" stroke="none" fill="#1c1c1c" fill-rule="evenodd"/><path d="M 510.085 1.551 C 462.991 5.489, 414.084 15.967, 370.821 31.388 C 357.980 35.964, 345.337 40.894, 338.500 43.988 C 336.300 44.984, 330.225 47.715, 325 50.056 C 293.789 64.041, 255.671 86.818, 225.500 109.511 C 190.003 136.209, 162.005 162.494, 133.906 195.500 C 64.010 277.602, 18.573 380.148, 4.525 487.500 C -1.469 533.312, -1.469 591.688, 4.525 637.500 C 33.432 858.406, 190.706 1042.721, 402.500 1103.904 C 500.175 1132.120, 609.825 1132.120, 707.500 1103.904 C 837.474 1066.357, 949.123 982.035, 1023.165 865.500 C 1066.315 797.586, 1095.048 717.888, 1105.543 637 C 1109.085 609.704, 1110.261 592.372, 1110.651 561.750 C 1110.880 543.701, 1110.672 530, 1110.169 530 C 1109.683 530, 1108.978 524.938, 1108.604 518.750 C 1108.230 512.563, 1107.025 500.300, 1105.927 491.500 C 1084.323 318.397, 985.370 166.302, 836.426 77.269 C 763.438 33.639, 684.400 8.507, 598.186 1.514 C 575.742 -0.306, 532.083 -0.288, 510.085 1.551 M 824 274.096 C 719.899 343.344, 691.102 361.956, 664 377.501 C 648.875 386.177, 636.399 393.352, 636.275 393.446 C 636.152 393.539, 642.677 397.384, 650.775 401.989 C 680.486 418.883, 694.362 427.524, 789.140 488.156 C 842.291 522.158, 886.391 550.199, 887.140 550.468 C 888.050 550.797, 894.622 541.344, 907 521.906 C 917.175 505.927, 925.500 492.230, 925.500 491.468 C 925.500 490.706, 891.975 468.643, 851 442.437 C 810.025 416.232, 776.095 394.411, 775.601 393.947 C 775.093 393.470, 805.370 372.776, 845.101 346.445 C 883.820 320.784, 915.816 299.498, 916.202 299.143 C 916.904 298.496, 878.527 239.645, 877.203 239.336 C 876.816 239.246, 852.875 254.888, 824 274.096 M 351 272.471 C 331.463 275.770, 312.110 283.826, 297.448 294.764 C 270.494 314.871, 253.578 343.265, 248.455 377 C 240.635 428.486, 267.191 480.270, 313.743 504.313 C 387.671 542.495, 477.023 496.069, 489.502 412.990 C 496.637 365.481, 475.638 317.851, 435.913 291.442 C 411.221 275.027, 378.784 267.780, 351 272.471 M 0.446 562.500 C 0.447 580.100, 0.583 587.159, 0.749 578.187 C 0.914 569.215, 0.914 554.815, 0.748 546.187 C 0.581 537.559, 0.446 544.900, 0.446 562.500 M 266.422 722.483 C 268.182 746.458, 277.516 770.766, 293.982 794.254 C 302.097 805.829, 324.272 828.173, 337.287 837.889 C 386.232 874.429, 449.449 897.257, 525 905.676 C 546.721 908.096, 599.279 908.096, 621 905.676 C 665.766 900.688, 708.096 890.172, 742.500 875.492 C 824.929 840.320, 874.811 784.346, 879.633 721.612 L 880.295 713 831.148 713 L 782 713 782 717.455 C 782 727.851, 774.329 742.440, 762.731 754.104 C 742.454 774.495, 706.920 791.124, 662.552 800.986 C 634.108 807.308, 607.362 810, 573 810 C 529.436 810, 493.729 805.157, 458.448 794.463 C 442.551 789.645, 432.957 785.813, 418.318 778.436 C 397.485 767.937, 379.822 753.479, 372.123 740.622 C 367.551 732.988, 364 722.860, 364 717.455 L 364 713 314.863 713 L 265.726 713 266.422 722.483" stroke="none" fill="#fbfbfb" fill-rule="evenodd"/></svg>