<svg xmlns="http://www.w3.org/2000/svg" width="1003" height="903" viewBox="0 0 1003 903" version="1.1"><path d="M 766 135.500 L 766 250 884.500 250 L 1003 250 1003 135.500 L 1003 21 884.500 21 L 766 21 766 135.500 M 406 473 L 406 587 524.500 587 L 643 587 643 473 L 643 359 524.500 359 L 406 359 406 473 M 781 472.500 L 781 572 884 572 L 987 572 987 472.500 L 987 373 884 373 L 781 373 781 472.500 M 20 788.500 L 20 903 138.500 903 L 257 903 257 788.500 L 257 674 138.500 674 L 20 674 20 788.500 M 422 788.500 L 422 888 524.500 888 L 627 888 627 788.500 L 627 689 524.500 689 L 422 689 422 788.500 M 781 788.500 L 781 888 884 888 L 987 888 987 788.500 L 987 689 884 689 L 781 689 781 788.500" stroke="none" fill="#dcdcdc" fill-rule="evenodd"/><path d="M 0 135.500 L 0 271 142 271 L 284 271 284 135.500 L 284 0 142 0 L 0 0 0 135.500 M 383 135.500 L 383 271 525 271 L 667 271 667 135.500 L 667 0 525 0 L 383 0 383 135.500 M 0 472.500 L 0 608 142 608 L 284 608 284 472.500 L 284 337 142 337 L 0 337 0 472.500" stroke="none" fill="#bcbcbc" fill-rule="evenodd"/></svg>