<svg xmlns="http://www.w3.org/2000/svg" width="1180" height="1171" viewBox="0 0 1180 1171" version="1.1"><path d="M 911.230 291.952 C 898.800 295.316, 888.616 301.326, 879 310.973 C 869.572 320.431, 865.085 327.302, 861.378 337.963 C 847.403 378.147, 869.749 421.462, 911 434.152 C 920.832 437.176, 940.018 437.411, 950 434.628 C 986.197 424.537, 1008.995 388.939, 1002.641 352.430 C 997.627 323.621, 977.873 301.131, 950 292.496 C 941.213 289.774, 920.359 289.481, 911.230 291.952 M 750.481 403.405 C 704.046 414.014, 679.999 465.305, 701.470 507.941 C 709.096 523.084, 720.009 533.868, 735.500 541.570 C 746.276 546.927, 755.226 548.964, 768 548.968 C 800.478 548.977, 827.159 528.910, 837.145 496.965 C 840.509 486.204, 840.509 466.796, 837.145 456.035 C 829.272 430.850, 811.378 412.816, 786.500 404.997 C 777.573 402.191, 759.323 401.385, 750.481 403.405 M 593.500 514.557 C 592.400 514.811, 589.102 515.506, 586.170 516.099 C 566.517 520.081, 546.858 535.306, 537.944 553.450 C 517.922 594.199, 537.139 642.074, 579.633 657.314 C 618.001 671.075, 659.605 650.603, 672.738 611.500 C 675.152 604.313, 675.429 602.026, 675.462 589 C 675.503 573.206, 674.210 567.292, 668.046 555.098 C 658.696 536.602, 640.408 521.773, 620.500 516.545 C 614.472 514.963, 597.234 513.693, 593.500 514.557 M 434.500 626.733 C 415.455 628.282, 399.814 635.229, 387.382 647.662 C 374.604 660.439, 367.450 676.519, 366.312 695.020 C 364.210 729.171, 386.301 760.741, 419.382 770.860 C 430.942 774.396, 449.138 774.521, 459.975 771.139 C 489.274 761.994, 508.665 738.932, 512.084 709.165 C 516.244 672.937, 491.583 637.594, 456.146 628.996 C 448.513 627.144, 440.172 626.272, 434.500 626.733 M 268 735.447 C 237.914 741.913, 216.459 763.260, 210.336 792.820 C 208.241 802.934, 208.978 818.793, 211.994 828.500 C 223.868 866.716, 263.163 889.060, 301.500 879.396 C 321.955 874.240, 341.357 857.384, 349.724 837.500 C 357.615 818.745, 356.984 795.324, 348.084 776.675 C 339.226 758.116, 321.394 743.013, 301.513 737.233 C 291.389 734.289, 276.966 733.521, 268 735.447" stroke="none" fill="#1c1c1c" fill-rule="evenodd"/><path d="M 691.960 0.250 C 691.939 0.388, 682.529 52.925, 671.050 117 C 659.572 181.075, 650.302 233.625, 650.451 233.778 C 650.601 233.931, 662.753 236.219, 677.456 238.863 C 695.307 242.073, 704.321 243.309, 704.584 242.585 C 705.104 241.156, 746 11.960, 746 10.476 C 746 9.261, 692.147 -0.930, 691.960 0.250 M 309.248 183.175 L 288.057 198.310 291.401 202.905 C 293.240 205.432, 325.458 250.700, 362.997 303.500 C 400.536 356.300, 432.062 400.356, 433.054 401.401 C 434.815 403.257, 435.350 402.951, 455.429 388.611 C 466.743 380.531, 476 373.506, 476 373.002 C 476 372.244, 333.300 171.074, 331.128 168.770 C 330.750 168.368, 320.904 174.851, 309.248 183.175 M 536.500 489.566 C 307.700 646.584, 119.881 775.428, 119.125 775.886 C 118.053 776.536, 118.933 778.449, 123.125 784.575 C 126.081 788.896, 128.831 792.957, 129.235 793.600 C 129.718 794.369, 117.114 803.442, 92.374 820.134 C 71.696 834.085, 54.561 846.046, 54.296 846.713 C 53.956 847.570, 75.763 881.354, 79.542 885.825 C 79.693 886.004, 96.846 874.629, 117.659 860.548 C 138.471 846.466, 155.900 834.845, 156.389 834.722 C 156.878 834.600, 160.570 839.258, 164.593 845.072 L 171.908 855.645 131.418 883.006 C 107.399 899.237, 91.116 910.861, 91.392 911.580 C 92.480 914.413, 117.212 949.986, 117.826 949.599 C 118.197 949.365, 136.275 937.173, 158 922.506 C 179.725 907.839, 197.859 895.762, 198.299 895.669 C 198.738 895.576, 202.433 900.321, 206.510 906.213 L 213.922 916.926 173.711 944.084 C 151.595 959.021, 132.889 971.814, 132.143 972.513 C 131.016 973.570, 132.963 977.020, 143.643 992.885 C 152.250 1005.670, 156.996 1011.866, 158 1011.627 C 158.825 1011.431, 177.808 998.893, 200.184 983.765 L 240.868 956.259 246.184 964.097 C 249.108 968.407, 251.810 971.949, 252.189 971.967 C 252.980 972.005, 1084.884 401.507, 1086.684 399.693 C 1087.597 398.772, 1072.656 376.320, 1021.184 301.262 C 984.508 247.781, 954.050 204.037, 953.500 204.052 C 952.950 204.067, 765.300 332.549, 536.500 489.566 M 911.230 291.952 C 898.800 295.316, 888.616 301.326, 879 310.973 C 869.572 320.431, 865.085 327.302, 861.378 337.963 C 847.403 378.147, 869.749 421.462, 911 434.152 C 920.832 437.176, 940.018 437.411, 950 434.628 C 986.197 424.537, 1008.995 388.939, 1002.641 352.430 C 997.627 323.621, 977.873 301.131, 950 292.496 C 941.213 289.774, 920.359 289.481, 911.230 291.952 M 750.481 403.405 C 704.046 414.014, 679.999 465.305, 701.470 507.941 C 709.096 523.084, 720.009 533.868, 735.500 541.570 C 746.276 546.927, 755.226 548.964, 768 548.968 C 800.478 548.977, 827.159 528.910, 837.145 496.965 C 840.509 486.204, 840.509 466.796, 837.145 456.035 C 829.272 430.850, 811.378 412.816, 786.500 404.997 C 777.573 402.191, 759.323 401.385, 750.481 403.405 M 7.617 477.546 C 3.323 491.074, 0.061 502.394, 0.367 502.701 C 1.076 503.409, 237.090 578.951, 238.683 578.979 C 240.052 579.003, 256.016 530.506, 254.910 529.681 C 254.685 529.513, 201.175 512.357, 136 491.556 C 70.825 470.756, 17.033 453.560, 16.462 453.343 C 15.878 453.121, 12.013 463.697, 7.617 477.546 M 593.500 514.557 C 592.400 514.811, 589.102 515.506, 586.170 516.099 C 566.517 520.081, 546.858 535.306, 537.944 553.450 C 517.922 594.199, 537.139 642.074, 579.633 657.314 C 618.001 671.075, 659.605 650.603, 672.738 611.500 C 675.152 604.313, 675.429 602.026, 675.462 589 C 675.503 573.206, 674.210 567.292, 668.046 555.098 C 658.696 536.602, 640.408 521.773, 620.500 516.545 C 614.472 514.963, 597.234 513.693, 593.500 514.557 M 939.536 608.941 C 938.297 610.947, 923.931 657.265, 924.403 657.736 C 925.113 658.447, 1161.109 733.954, 1162.702 733.980 C 1164.050 734.002, 1179.411 687.513, 1178.682 685.614 C 1178.431 684.959, 1132.162 669.696, 1075.863 651.695 C 1019.563 633.694, 965.957 616.550, 956.739 613.597 C 947.520 610.644, 939.779 608.549, 939.536 608.941 M 434.500 626.733 C 415.455 628.282, 399.814 635.229, 387.382 647.662 C 374.604 660.439, 367.450 676.519, 366.312 695.020 C 364.210 729.171, 386.301 760.741, 419.382 770.860 C 430.942 774.396, 449.138 774.521, 459.975 771.139 C 489.274 761.994, 508.665 738.932, 512.084 709.165 C 516.244 672.937, 491.583 637.594, 456.146 628.996 C 448.513 627.144, 440.172 626.272, 434.500 626.733 M 268 735.447 C 237.914 741.913, 216.459 763.260, 210.336 792.820 C 208.241 802.934, 208.978 818.793, 211.994 828.500 C 223.868 866.716, 263.163 889.060, 301.500 879.396 C 321.955 874.240, 341.357 857.384, 349.724 837.500 C 357.615 818.745, 356.984 795.324, 348.084 776.675 C 339.226 758.116, 321.394 743.013, 301.513 737.233 C 291.389 734.289, 276.966 733.521, 268 735.447 M 739 786.144 C 728.275 793.827, 718.913 800.690, 718.195 801.397 C 717.126 802.449, 730.015 821.107, 789.480 904.591 C 829.404 960.641, 862.644 1006.452, 863.345 1006.393 C 864.378 1006.306, 901.252 980.728, 904.378 977.930 C 905.141 977.247, 764.515 778.264, 760.142 773.838 C 758.614 772.291, 757.144 773.147, 739 786.144 M 513.500 930.157 C 513.156 931.996, 503.742 984.575, 492.580 1047 C 474.640 1147.327, 472.471 1160.584, 473.892 1161.223 C 475.573 1161.979, 526.246 1171.123, 526.559 1170.727 C 526.884 1170.317, 568 939.277, 567.998 937.872 C 567.997 936.863, 561.440 935.352, 543.248 932.167 C 529.637 929.784, 517.516 927.605, 516.313 927.325 C 514.475 926.896, 514.025 927.349, 513.500 930.157" stroke="none" fill="#fbfbfb" fill-rule="evenodd"/></svg>